PathFileType	4	(X/Y/Z)	Kaydara																																																																																																																									
DataRate	CameraRate	NumFrames	NumMarkers	Units	OrigDataRate	OrigDataStartFrame	OrigNumFrames																																																																																																																					
30	30	5	41	mm	30	89	176																																																																																																																					
Frame#	Time	SALE_LFHD			SALE_RFHD			SALE_LBHD			SALE_RBHD			SALE_LFTShould			SALE_RFTShould			SALE_LRRShould			SALE_RRRShould			SALE_T10			SALE_STRN			SALE_TRUN			SALE_LSHO			SALE_LUPA			SALE_LELB			SALE_LFRM			SALE_LWRA			SALE_LWRB			SALE_LFIN			SALE_RSHO			SALE_RUPA			SALE_RELB			SALE_RFRM			SALE_RWRB			SALE_RFIN			SALE_LFWT			SALE_RFWT			SALE_LBWT			SALE_RBWT			SALE_LTHI			SALE_LKNE			SALE_RWRA			SALE_LSHN			SALE_LANK			SALE_LHEE			SALE_LTOE			SALE_RTHI			SALE_RKNE			SALE_RSHN			SALE_RANK			SALE_RHEE			SALE_RTOE		
		X1	Y1	Z1	X2	Y2	Z2	X3	Y3	Z3	X4	Y4	Z4	X5	Y5	Z5	X6	Y6	Z6	X7	Y7	Z7	X8	Y8	Z8	X9	Y9	Z9	X10	Y10	Z10	X11	Y11	Z11	X12	Y12	Z12	X13	Y13	Z13	X14	Y14	Z14	X15	Y15	Z15	X16	Y16	Z16	X17	Y17	Z17	X18	Y18	Z18	X19	Y19	Z19	X20	Y20	Z20	X21	Y21	Z21	X22	Y22	Z22	X23	Y23	Z23	X24	Y24	Z24	X25	Y25	Z25	X26	Y26	Z26	X27	Y27	Z27	X28	Y28	Z28	X29	Y29	Z29	X30	Y30	Z30	X31	Y31	Z31	X32	Y32	Z32	X33	Y33	Z33	X34	Y34	Z34	X35	Y35	Z35	X36	Y36	Z36	X37	Y37	Z37	X38	Y38	Z38	X39	Y39	Z39	X40	Y40	Z40	X41	Y41	Z41
																																																																																																																												
89	2.943	179.98678	1626.18088	-1722.80838	169.52471	1617.13882	-1856.06766	45.87261	1627.69501	-1717.80563	42.78988	1617.09961	-1844.1507	190.14259	1389.01749	-1771.08612	48.95375	1371.40198	-1755.93475	163.69358	1446.74728	-1883.02567	20.47973	1436.20804	-1857.01233	90.21247	1292.22778	-1949.74655	125.51431	1304.32678	-1716.48163	132.4302	1212.23717	-1688.15735	289.94123	1428.07678	-1857.08389	340.79384	1235.43579	-1931.63605	333.89423	1131.1438	-1970.46097	385.32269	1026.56586	-1965.74936	366.13754	876.33965	-1902.19452	416.00952	881.35292	-1960.52307	432.22004	834.09485	-1918.2901	-65.52585	1399.01199	-1808.1485	-97.57196	1177.90451	-1891.27182	-126.55268	1074.27567	-1855.85648	-121.41953	964.80804	-1880.41458	-142.63598	823.66066	-1860.42175	-151.48078	774.50333	-1810.21851	260.58098	967.23099	-1826.59241	-18.94158	938.62823	-1824.90799	195.57604	1029.56169	-1987.10464	22.88903	1027.8833	-1981.17706	269.06	654.74052	-1866.37802	246.18353	536.76487	-1712.16003	-96.30545	823.98529	-1799.87381	239.13631	323.22731	-1746.72852	224.26739	151.7866	-1830.34576	173.70203	104.65071	-1893.8504	218.82668	108.72822	-1706.64368	-11.1332	711.07986	-2018.81973	23.65474	538.1451	-1944.71893	81.15208	352.42115	-2006.65878	37.66227	120.21046	-2122.77176	79.29934	64.52294	-2210.03464	56.88739	77.95643	-2016.58997
90	2.977	180.35795	1619.66568	-1695.86609	169.40884	1609.14429	-1828.92487	46.82997	1621.38565	-1689.78119	42.70299	1609.37073	-1816.41006	190.54361	1381.44714	-1742.52884	49.60421	1363.72498	-1725.18478	162.51379	1440.91782	-1853.68301	19.45726	1430.33142	-1825.76218	87.86862	1287.39502	-1921.03119	126.6956	1296.01212	-1688.09387	133.84297	1203.60931	-1661.02188	288.88287	1422.03949	-1829.8262	338.3543	1232.06543	-1910.30533	331.39183	1128.93265	-1952.08008	383.50006	1024.61655	-1951.91345	366.82384	872.26387	-1892.55066	414.98024	879.38652	-1951.9191	432.6218	831.21201	-1911.63635	-65.4746	1392.84149	-1775.48264	-99.87717	1171.52016	-1857.91794	-128.48584	1068.16467	-1822.5528	-123.09854	957.90062	-1845.68695	-143.94627	817.33124	-1821.91315	-151.10876	768.7748	-1771.35727	261.10107	962.22206	-1801.88019	-18.53711	931.48979	-1801.28052	195.50209	1023.06747	-1963.31421	22.92099	1020.99533	-1956.86813	272.83915	650.54893	-1834.70108	246.35122	538.27286	-1675.83801	-96.4421	819.13628	-1762.30255	239.76061	322.7742	-1683.3139	225.75859	141.55059	-1742.53265	176.61766	88.86139	-1801.44592	216.66069	109.65925	-1613.81653	-10.63219	708.39958	-1999.73465	22.4437	534.15001	-1933.80768	80.11755	350.74463	-2001.43524	37.25524	121.02444	-2122.07703	79.0419	66.93761	-2209.81308	56.54052	77.60786	-2016.59027
91	3.01	181.54884	1611.56754	-1667.20901	170.33846	1599.44336	-1799.9617	48.56985	1613.70911	-1660.38956	43.67219	1600.09445	-1787.12708	192.05952	1372.55219	-1711.97662	51.00765	1354.20013	-1693.44208	162.40868	1433.5527	-1822.40112	19.50839	1422.72675	-1793.21701	87.04041	1280.95032	-1890.7901	128.20531	1285.84	-1658.3577	135.41788	1193.17406	-1632.25677	288.83554	1414.56924	-1800.16235	336.34857	1227.5148	-1887.27386	328.92937	1125.31967	-1930.91995	381.67194	1021.52176	-1935.88898	367.71542	866.85738	-1881.22253	413.63197	876.38191	-1941.66092	433.21785	827.41653	-1903.67142	-64.59519	1384.56696	-1741.95358	-101.26819	1163.25111	-1824.14536	-129.58666	1059.85886	-1787.659	-124.3742	948.81569	-1809.04755	-144.72478	808.71925	-1780.27252	-150.4738	761.92154	-1728.55911	260.926	954.19754	-1775.40665	-17.80364	923.37906	-1774.50729	196.68726	1014.73778	-1936.7601	23.78052	1012.71957	-1930.18021	272.6687	644.8024	-1802.97623	247.031	535.6789	-1640.73425	-96.0511	812.80785	-1721.63651	240.89554	322.50034	-1620.1915	229.86622	134.81549	-1654.81903	184.04766	76.43424	-1709.95224	214.84819	114.88506	-1522.25449	-10.72622	706.91551	-1979.47372	20.26955	530.86681	-1922.54471	77.7329	350.8992	-1996.59912	36.88937	123.18251	-2121.01776	79.31353	71.61137	-2209.18045	56.0157	77.24832	-2016.37115
92	3.043	183.87474	1602.68799	-1636.4621	172.43237	1589.29062	-1769.28406	50.89932	1605.19562	-1629.43161	45.66641	1590.20737	-1755.98572	194.05249	1362.96005	-1679.41299	53.14755	1344.40247	-1660.33371	163.65971	1425.19363	-1789.48502	21.0723	1414.44107	-1758.97003	87.61041	1273.3683	-1858.75244	130.13519	1275.34271	-1626.50406	137.22446	1182.53456	-1601.26984	289.89597	1406.62109	-1768.50037	335.34729	1221.93741	-1860.57739	327.49702	1120.72807	-1906.27655	380.53566	1017.82661	-1917.08771	369.55448	860.86166	-1866.87714	411.94279	872.90802	-1928.88397	433.41846	822.74147	-1893.51517	-62.6585	1375.56061	-1707.70325	-101.38916	1153.99323	-1789.87656	-130.24505	1050.6871	-1751.89438	-125.44688	939.08127	-1771.06796	-145.08674	800.35469	-1736.36887	-149.45989	755.28839	-1683.01376	261.30838	944.80148	-1744.88708	-16.93009	915.084	-1744.46335	199.00467	1005.0425	-1906.78497	25.09961	1003.77686	-1900.65643	270.13376	635.59696	-1770.41168	247.30858	530.28446	-1605.39185	-94.8566	806.09421	-1679.11057	242.67313	323.14442	-1561.91513	235.99211	132.56686	-1574.88174	194.12197	67.89517	-1625.51193	213.93154	125.84746	-1441.14746	-11.16819	707.1846	-1957.09641	16.51691	529.41708	-1910.95825	74.2364	353.26511	-1990.76691	36.47851	127.93403	-2120.56183	80.72554	79.3338	-2207.97272	55.0307	76.90762	-2015.92377
93	3.077	187.41779	1594.7731	-1603.50555	175.82556	1580.10544	-1736.34262	54.57436	1597.26761	-1596.18149	49.05073	1581.13998	-1722.76306	197.19416	1353.31284	-1645.36987	56.29061	1335.77591	-1624.96368	166.59292	1417.24762	-1754.59091	24.01082	1406.92001	-1723.23914	89.77543	1266.0881	-1824.23065	132.97877	1266.04736	-1592.17834	139.54947	1173.04916	-1567.43256	292.5794	1399.03046	-1734.50424	335.69672	1216.15944	-1830.61417	327.53906	1115.72098	-1877.99316	380.34744	1013.92479	-1894.11011	371.55716	855.41183	-1849.67407	411.04904	869.63074	-1912.98096	433.90499	818.00087	-1880.6282	-59.53737	1367.69455	-1671.77902	-100.14316	1146.18729	-1754.87518	-129.95049	1043.17146	-1715.78323	-125.49952	930.67421	-1732.04071	-143.90517	792.9129	-1691.62003	-148.06408	750.89165	-1636.25534	261.91692	935.34889	-1711.14868	-16.25813	908.25378	-1711.57959	201.22278	995.66299	-1874.30405	26.44996	996.2001	-1868.15918	269.8192	625.65331	-1734.5488	247.30757	523.77907	-1566.78848	-93.19673	801.04393	-1635.6424	243.39537	323.10364	-1510.25284	241.05585	132.50999	-1510.89584	203.20232	64.3821	-1559.56253	212.07104	129.39705	-1375.93369	-11.68756	709.36188	-1929.7789	14.50772	529.34025	-1892.47238	71.96653	356.16375	-1979.68552	35.08772	135.48061	-2118.80783	80.47408	90.9228	-2206.36566	53.20596	76.33397	-2015.72861
